<svg id="Capa_1" enable-background="new 0 0 512 512" height="512" viewBox="0 0 512 512" width="512" xmlns="http://www.w3.org/2000/svg"><path d="m318.415 397.338 185.495-185.495c10.786-10.786 10.786-28.273 0-39.059l-154.053-154.054c-10.786-10.786-28.273-10.786-39.059 0l-185.495 185.495z" fill="#fc8086"/><path d="m360.298 501.359h-199.984c-4.268 0-7.726-3.459-7.726-7.726s3.459-7.726 7.726-7.726h199.985c4.268 0 7.726 3.459 7.726 7.726s-3.459 7.726-7.727 7.726z" fill="#97e4f9"/><path d="m503.912 211.841c10.784-10.786 10.783-28.272-.002-39.057l-154.053-154.054c-10.786-10.786-28.273-10.786-39.059 0l-185.495 185.495 11.263 36.099 135.11 135.11 46.74 21.904z" fill="#0e80ac"/><path d="m498.672 167.545-213.986 213.986 33.73 15.807 185.497-185.497c10.784-10.786 10.783-28.272-.002-39.057z" fill="#057195"/><path d="m264.673 382.437-135.11-135.11-36.099-11.263-85.375 85.375c-10.786 10.786-10.786 28.273 0 39.059l134.405 134.405c4.134 4.134 9.741 6.457 15.588 6.457h47.181c5.847 0 11.454-2.323 15.588-6.457l65.726-65.726z" fill="#fb636f"/><path d="m164.857 501.359h40.406c5.847 0 11.454-2.323 15.588-6.457l65.726-65.726-15.807-33.73z" fill="#fa4954"/><path d="m183.426 180.15h45.027v273.102h-45.027z" fill="#f1faff" transform="matrix(.707 -.707 .707 .707 -163.623 238.381)"/><path d="m267.598 383.359h45.027v35.028h-45.027z" fill="#dcf5ff" transform="matrix(.707 -.707 .707 .707 -198.488 322.553)"/></svg>