<svg id="Capa_1" enable-background="new 0 0 609.714 609.714" height="512" viewBox="0 0 609.714 609.714" width="512" xmlns="http://www.w3.org/2000/svg"><g><g id="Page-1_66_"><g id="_x30_67---Notes"><path id="Shape_137_" d="m244.489 528.499 251.909 79.773c7.728 2.474 16.126 1.742 23.309-2.032 7.175-3.732 12.55-10.19 14.916-17.924l73.677-232.481c4.966-16.062-3.939-33.125-19.956-38.236l-121.402-38.469c.292-1.579.455-3.18.488-4.786v-243.861c0-16.835-13.648-30.483-30.483-30.483h-264.184c-16.835 0-30.483 13.648-30.483 30.483v167.533l-120.914 38.306c-16.02 5.105-24.925 22.176-19.946 38.236l73.646 232.471c2.395 7.745 7.784 14.212 14.969 17.965s15.572 4.481 23.297 2.022l110.988-35.228c-4.016 15.642 4.813 31.712 20.169 36.711zm344.455-178.781-73.707 232.502c-.791 2.565-2.577 4.706-4.959 5.944-2.399 1.245-5.19 1.497-7.773.701l-251.828-79.722c-5.325-1.725-8.285-7.398-6.655-12.752l3.81-12 117.45-37.199c15.94-5.192 24.753-22.225 19.783-38.236l-33.003-104.129h84.884c7.335-.03 14.409-2.724 19.905-7.58l125.396 39.709c5.338 1.716 8.31 7.399 6.676 12.762zm-426.342-319.235c0-5.612 4.549-10.161 10.161-10.161h264.184c5.612 0 10.161 4.549 10.161 10.161v243.862c0 5.612-4.549 10.161-10.161 10.161h-264.184c-5.612 0-10.161-4.549-10.161-10.161zm-55.377 477.115c-2.578.817-5.375.573-7.772-.678s-4.197-3.406-5.001-5.988l-73.655-232.481c-1.648-5.364 1.323-11.056 6.666-12.772l114.818-36.356v55.021c0 16.835 13.648 30.483 30.483 30.483h157.982l34.933 110.236c1.649 5.34-1.278 11.018-6.584 12.772z"/><g clip-rule="evenodd" fill-rule="evenodd"><path id="Path_488_" d="m203.246 81.287h40.644c5.612 0 10.161-4.549 10.161-10.161s-4.549-10.161-10.161-10.161h-40.644c-5.612 0-10.161 4.549-10.161 10.161s4.549 10.161 10.161 10.161z"/><path id="Path_487_" d="m284.533 81.287h121.931c5.612 0 10.161-4.549 10.161-10.161s-4.549-10.161-10.161-10.161h-121.931c-5.612 0-10.161 4.549-10.161 10.161s4.55 10.161 10.161 10.161z"/><path id="Path_486_" d="m203.246 142.253h203.218c5.612 0 10.161-4.549 10.161-10.161s-4.549-10.161-10.161-10.161h-203.218c-5.612 0-10.161 4.549-10.161 10.161s4.549 10.161 10.161 10.161z"/><path id="Path_485_" d="m203.246 203.218h71.126c5.612 0 10.161-4.549 10.161-10.161s-4.549-10.161-10.161-10.161h-71.126c-5.612 0-10.161 4.549-10.161 10.161s4.549 10.161 10.161 10.161z"/></g></g></g></g></svg>