<svg id="Capa_1" enable-background="new 0 0 512 512" height="512" viewBox="0 0 512 512" width="512" xmlns="http://www.w3.org/2000/svg"><g><g><g><path d="m385.842 16.1c-10.382-10.382-24.185-16.1-38.867-16.1s-28.484 5.718-38.866 16.099l-274.042 274.045c-6.209 6.209-10.456 14.032-12.28 22.621l-14.98 70.514c-.704 3.312.316 6.755 2.711 9.149 1.895 1.895 4.447 2.929 7.071 2.929.691 0 1.388-.072 2.078-.218l70.514-14.98c8.589-1.825 16.411-6.072 22.621-12.281l274.04-274.046c21.431-21.431 21.431-56.302 0-77.732zm-51.139 100.588-9.113 9.113-49.449-49.449 9.113-9.114zm-32.369 32.369-49.449-49.449 9.113-9.114 49.449 49.449zm-63.591-35.307 17.654 17.654-172.931 172.932c-6.11.04-11.903-2.299-16.292-6.688-2.141-2.141-3.811-4.642-4.947-7.381zm-205.237 240.093 14.596 14.596-18.533 3.938zm51.517 6.752-13.592 2.888-32.969-32.969 2.888-13.593c.949-4.466 3.071-8.561 6.158-11.904 1.593 2.419 3.439 4.688 5.524 6.773 6.861 6.861 15.571 11.075 24.894 12.228 1.154 9.323 5.367 18.033 12.228 24.894 2.085 2.085 4.353 3.931 6.773 5.524-3.342 3.088-7.438 5.21-11.904 6.159zm26.654-20.878c-2.739-1.136-5.24-2.806-7.38-4.946-4.388-4.389-6.744-10.199-6.688-16.293l6.37-6.37 166.561-166.562 17.653 17.653zm260.022-260.026-22.854 22.855-49.448-49.45 22.855-22.855c6.604-6.604 15.384-10.241 24.723-10.241 9.34 0 18.12 3.637 24.724 10.241 13.634 13.634 13.634 35.816 0 49.45z"/></g></g><g><g><path d="m373.42 292.12c-9.795.003-13.697-12.888-5.55-18.32 5.628-3.998 14.203-.439 15.36 6.36 1.347 5.977-3.696 12.1-9.81 11.96z"/></g><path d="m502.483 153.059-70.7-70.701c-1.875-1.875-4.419-2.929-7.071-2.929s-5.196 1.054-7.071 2.929l-341.867 341.871c-3.905 3.905-3.905 10.237 0 14.142l70.7 70.701c1.876 1.875 4.419 2.929 7.071 2.929s5.196-1.054 7.071-2.929l180.557-180.56c3.905-3.905 3.905-10.237 0-14.142s-10.237-3.905-14.142 0l-173.486 173.488-56.557-56.558 15.452-15.452 21.495 21.496c1.953 1.953 4.512 2.929 7.071 2.929s5.119-.977 7.071-2.929c3.905-3.905 3.906-10.237.001-14.142l-21.496-21.497 42.394-42.394 21.496 21.496c1.953 1.953 4.512 2.929 7.071 2.929s5.119-.977 7.071-2.929c3.905-3.905 3.906-10.237 0-14.142l-21.496-21.497 42.393-42.394 21.496 21.496c1.953 1.953 4.512 2.929 7.071 2.929s5.119-.976 7.071-2.929c3.905-3.905 3.905-10.237 0-14.143l-21.496-21.496 42.393-42.393 21.496 21.496c1.953 1.953 4.512 2.929 7.071 2.929s5.119-.976 7.071-2.929c3.905-3.905 3.905-10.237 0-14.143l-21.496-21.496 42.393-42.394 21.496 21.496c1.953 1.953 4.512 2.929 7.071 2.929s5.119-.977 7.071-2.929c3.905-3.905 3.906-10.237 0-14.142l-21.496-21.497 42.394-42.394 21.496 21.496c1.953 1.953 4.512 2.929 7.071 2.929s5.119-.977 7.071-2.929c3.905-3.905 3.906-10.237 0-14.142l-21.496-21.497 15.452-15.452 56.558 56.559-80.499 80.5c-3.905 3.905-3.905 10.237 0 14.142s10.237 3.905 14.142-.001l87.569-87.57c3.907-3.904 3.908-10.236.002-14.14z"/></g></g></svg>