<svg id="Capa_1" enable-background="new 0 0 512.005 512.005" height="512" viewBox="0 0 512.005 512.005" width="512" xmlns="http://www.w3.org/2000/svg"><g><path d="m156.612 237.998c6.163 0 12.326-2.346 17.018-7.038 4.546-4.545 7.049-10.589 7.049-17.018s-2.503-12.473-7.049-17.018l-23.429-23.429c-9.384-9.384-24.651-9.384-34.035 0s-9.384 24.652 0 34.036l23.429 23.429c4.691 4.692 10.854 7.038 17.017 7.038zm-29.84-53.896c1.768-1.768 4.089-2.651 6.411-2.651 2.321 0 4.644.884 6.411 2.651l23.429 23.43c1.712 1.712 2.655 3.989 2.655 6.411s-.943 4.699-2.655 6.411c-3.535 3.535-9.287 3.535-12.822 0l-23.429-23.429c-3.535-3.535-3.535-9.288 0-12.823z"/><path d="m327.025 184.102c4.692 4.692 10.854 7.038 17.018 7.038 6.163 0 12.326-2.346 17.018-7.038 9.384-9.383 9.384-24.652 0-34.035l-11.714-11.714c-9.384-9.384-24.651-9.384-34.035 0-9.384 9.383-9.384 24.652 0 34.035zm-1.108-35.143c1.768-1.768 4.089-2.651 6.411-2.651s4.644.884 6.411 2.651l11.714 11.714c3.535 3.535 3.535 9.287 0 12.822-1.712 1.712-3.989 2.656-6.411 2.656s-4.699-.943-6.411-2.656l-11.714-11.714c-1.712-1.712-2.656-3.989-2.656-6.411s.943-4.698 2.656-6.411z"/><path d="m396.203 348.104c43.122-43.122 67.163-100.434 67.694-161.379.27-30.895-5.498-61.011-17.14-89.51-11.647-28.508-28.619-54.044-50.447-75.9-6.332-6.341-13.078-12.365-20.046-17.904-6.265-4.98-15.273-4.453-20.953 1.227l-11.817 11.817c-3.198 3.198-4.871 7.62-4.589 12.132.257 4.122 2.136 7.954 5.176 10.709l-12.981 12.981c-28.272-21.096-62.431-32.504-98.345-32.504-44.042 0-85.448 17.151-116.59 48.293-58.508 58.508-63.76 150.404-15.772 214.917l-12.999 12.999c-2.755-3.041-6.588-4.919-10.709-5.176-4.513-.28-8.934 1.391-12.132 4.589l-11.816 11.816c-5.68 5.679-6.207 14.687-1.226 20.953 5.547 6.978 11.577 13.729 17.923 20.065 4.76 4.753 9.785 9.351 14.935 13.666 3.174 2.66 7.905 2.242 10.565-.932 2.661-3.175 2.243-7.905-.932-10.565-4.817-4.036-9.517-8.337-13.97-12.783-5.942-5.934-11.588-12.254-16.78-18.785-.229-.288-.189-.733.091-1.013l11.816-11.816c.061-.061.255-.246.59-.225.237.015.433.12.583.312 5.047 6.495 10.566 12.749 16.404 18.587 77.206 77.206 202.831 77.207 280.038 0s77.207-202.832 0-280.038c-5.836-5.837-12.09-11.356-18.587-16.404-.192-.149-.297-.345-.312-.582-.021-.344.164-.529.225-.59l11.817-11.817c.28-.279.724-.32 1.012-.091 6.523 5.185 12.837 10.825 18.767 16.762 41.265 41.318 63.711 96.251 63.202 154.68-.497 56.988-22.978 110.58-63.301 150.903-40.304 40.304-93.869 62.784-150.827 63.3-41.551.394-82.074-11.096-117.134-33.176-3.503-2.206-8.135-1.155-10.343 2.35s-1.156 8.136 2.35 10.343c36.662 23.089 78.886 35.327 122.296 35.485v14.939h-26.2c-12.958 0-23.5 10.542-23.5 23.5v9.633h-17.633c-8.547 0-15.5 6.953-15.5 15.5v17.133c0 8.547 6.953 15.5 15.5 15.5h26.7c4.142 0 7.5-3.358 7.5-7.5s-3.358-7.5-7.5-7.5h-26.7c-.276 0-.5-.224-.5-.5v-17.133c0-.276.224-.5.5-.5h182.8c.276 0 .5.224.5.5v17.133c0 .276-.224.5-.5.5h-126.1c-4.142 0-7.5 3.358-7.5 7.5s3.358 7.5 7.5 7.5h126.1c8.547 0 15.5-6.953 15.5-15.5v-17.133c0-8.547-6.953-15.5-15.5-15.5h-17.633v-9.633c0-12.958-10.542-23.5-23.5-23.5h-26.2v-19.761c43.701-9.056 83.885-30.629 116.13-62.874zm-40.62-299.097c2.243 2.032 4.452 4.104 6.585 6.237 2.15 2.15 4.231 4.342 6.252 6.571l-12.842 12.842c-2.007-2.239-4.081-4.438-6.232-6.59-2.147-2.147-4.347-4.221-6.589-6.233zm-228.811 29.666c16.734-16.734 36.729-29.021 58.55-36.273l71.416 71.416c1.712 1.712 2.655 3.989 2.655 6.411s-.943 4.699-2.655 6.411c-3.535 3.535-9.287 3.535-12.822 0l-35.143-35.143c-4.545-4.546-10.589-7.049-17.018-7.049s-12.473 2.503-17.018 7.049c-9.384 9.383-9.384 24.652 0 34.035l23.429 23.429c1.712 1.712 2.655 3.989 2.655 6.411s-.943 4.699-2.655 6.411-3.989 2.655-6.411 2.655-4.699-.943-6.411-2.655l-70.126-70.126c3.56-4.493 7.404-8.832 11.554-12.982zm-20.381 25.368 68.346 68.347c4.545 4.545 10.589 7.049 17.018 7.049 6.428 0 12.472-2.503 17.018-7.049 9.384-9.383 9.384-24.652 0-34.035l-23.429-23.429c-1.712-1.712-2.656-3.989-2.656-6.411s.943-4.699 2.656-6.411c1.712-1.712 3.989-2.655 6.411-2.655s4.699.943 6.411 2.655l35.143 35.143c9.384 9.384 24.651 9.384 34.035 0 9.384-9.383 9.384-24.652 0-34.035l-65.296-65.297c9.992-2.07 20.266-3.14 30.707-3.14 40.036 0 77.675 15.59 105.984 43.9 46.333 46.333 55.923 115.699 28.788 171.576l-76.753-76.754c-4.545-4.545-10.589-7.049-17.018-7.049-6.428 0-12.472 2.503-17.018 7.049-9.384 9.384-9.384 24.652 0 34.036l29.286 29.286c1.712 1.712 2.655 3.989 2.655 6.411s-.943 4.699-2.655 6.411c-3.535 3.535-9.287 3.535-12.822 0l-11.714-11.714c-9.384-9.384-24.651-9.384-34.036 0-9.383 9.384-9.383 24.652.001 34.036l54.386 54.385c-6.582 2.274-13.333 4.091-20.217 5.427l-64.562-64.562c-9.384-9.384-24.652-9.383-34.036 0-4.546 4.546-7.049 10.589-7.049 17.018s2.504 12.473 7.049 17.018l11.714 11.714c2.875 2.875 3.411 7.215 1.611 10.638-18.332-7.44-35.165-18.547-49.576-32.959-50.589-50.587-57.375-128.632-20.382-186.599zm190.517 216.162-58.849-58.849c-3.535-3.535-3.535-9.288-.001-12.823 1.712-1.712 3.989-2.656 6.411-2.656s4.699.943 6.412 2.656l11.714 11.714c9.384 9.384 24.651 9.383 34.035.001 4.545-4.545 7.049-10.589 7.049-17.018 0-6.428-2.503-12.472-7.049-17.018l-29.286-29.286c-3.535-3.535-3.535-9.288 0-12.823 1.712-1.712 3.989-2.656 6.411-2.656s4.699.943 6.411 2.656l79.818 79.817c-5.919 9.499-13 18.475-21.245 26.72-12.358 12.36-26.494 22.293-41.831 29.565zm-111.564-17.849-11.715-11.715c-1.712-1.712-2.655-3.989-2.655-6.411s.943-4.699 2.655-6.411c3.536-3.536 9.288-3.535 12.823 0l56.381 56.381c-3.34.22-6.7.341-10.078.341-14.485 0-28.654-2.051-42.184-5.997 3.58-8.715 1.841-19.12-5.227-26.188zm-69.179-1.108c2.147 2.147 4.347 4.22 6.589 6.233l-12.844 12.844c-2.232-2.025-4.422-4.109-6.567-6.255-2.134-2.134-4.205-4.342-6.238-6.586l12.827-12.827c2.008 2.24 4.082 4.44 6.233 6.591zm246.003 12.823c-34.51 34.51-80.469 53.515-129.412 53.515-40.805 0-79.53-13.22-111.28-37.612l12.935-12.936c28.272 21.096 62.43 32.504 98.344 32.504 44.043 0 85.448-17.151 116.59-48.293 58.508-58.508 63.76-150.404 15.772-214.917l12.948-12.948c54.988 71.702 49.693 175.097-15.897 240.687zm-47.397 140.169v9.633h-117.533v-9.633c0-4.687 3.813-8.5 8.5-8.5h100.533c4.687 0 8.5 3.813 8.5 8.5zm-49.699-23.5h-18.134v-15.364c6.093-.367 12.14-.978 18.134-1.813z"/></g></svg>