<svg height="512" viewBox="0 0 512 512" width="512" xmlns="http://www.w3.org/2000/svg"><g><path d="m48 48h416v416h-416z" fill="#e0e0e2"/><g><g fill="#ffda44"><path d="m16 16h64v64h-64z"/><path d="m16 432h64v64h-64z"/><path d="m432 16h64v64h-64z"/><path d="m432 432h64v64h-64z"/></g><path d="m272 144h-32-80v32 32h15l9-32h56v168l-32 8v16h32 32 32v-16l-32-8v-168h56l9 32h15v-32-32z" fill="#57565c"/></g><g><path d="m496 88a8 8 0 0 0 8-8v-64a8 8 0 0 0 -8-8h-64a8 8 0 0 0 -8 8v24h-336v-24a8 8 0 0 0 -8-8h-64a8 8 0 0 0 -8 8v64a8 8 0 0 0 8 8h24v336h-24a8 8 0 0 0 -8 8v64a8 8 0 0 0 8 8h64a8 8 0 0 0 8-8v-24h336v24a8 8 0 0 0 8 8h64a8 8 0 0 0 8-8v-64a8 8 0 0 0 -8-8h-24v-336zm-472-16v-48h48v48zm48 416h-48v-48h48zm352-56v24h-336v-24a8 8 0 0 0 -8-8h-24v-336h24a8 8 0 0 0 8-8v-24h336v24a8 8 0 0 0 8 8h24v336h-24a8 8 0 0 0 -8 8zm64 8v48h-48v-48zm-48-368v-48h48v48z"/><path d="m352 136h-192a8 8 0 0 0 -8 8v64a8 8 0 0 0 8 8h15a8 8 0 0 0 7.7-5.83l7.36-26.17h41.94v153.75l-25.94 6.49a8 8 0 0 0 -6.06 7.76v16a8 8 0 0 0 8 8h96a8 8 0 0 0 8-8v-16a8 8 0 0 0 -6.06-7.76l-25.94-6.49v-153.75h41.94l7.36 26.17a8 8 0 0 0 7.7 5.83h15a8 8 0 0 0 8-8v-64a8 8 0 0 0 -8-8zm-8 64h-.94l-7.36-26.17a8 8 0 0 0 -7.7-5.83h-56a8 8 0 0 0 -8 8v168a8 8 0 0 0 6.06 7.76l25.94 6.49v1.75h-80v-1.75l25.94-6.49a8 8 0 0 0 6.06-7.76v-168a8 8 0 0 0 -8-8h-56a8 8 0 0 0 -7.7 5.83l-7.36 26.17h-.94v-48h176z"/><path d="m360 392h-208a8 8 0 0 0 0 16h208a8 8 0 0 0 0-16z"/><path d="m288 416h-64a8 8 0 0 0 0 16h64a8 8 0 0 0 0-16z"/></g></g></svg>